<?xml version="1.0" encoding="UTF-8" standalone="no"?>
<!-- Created with Inkscape (http://www.inkscape.org/) -->

<svg
   width="129.33214mm"
   height="145.12337mm"
   viewBox="0 0 129.33214 145.12337"
   version="1.1"
   id="svg1"
   inkscape:version="1.3.2 (091e20ef0f, 2023-11-25, custom)"
   sodipodi:docname="stack-arc.svg"
   xmlns:inkscape="http://www.inkscape.org/namespaces/inkscape"
   xmlns:sodipodi="http://sodipodi.sourceforge.net/DTD/sodipodi-0.dtd"
   xmlns="http://www.w3.org/2000/svg"
   xmlns:svg="http://www.w3.org/2000/svg">
  <sodipodi:namedview
     id="namedview1"
     pagecolor="#ffffff"
     bordercolor="#000000"
     borderopacity="0.25"
     inkscape:showpageshadow="2"
     inkscape:pageopacity="0.0"
     inkscape:pagecheckerboard="0"
     inkscape:deskcolor="#d1d1d1"
     inkscape:document-units="mm"
     inkscape:zoom="2.3634905"
     inkscape:cx="52.887879"
     inkscape:cy="190.81947"
     inkscape:window-width="3840"
     inkscape:window-height="2055"
     inkscape:window-x="0"
     inkscape:window-y="0"
     inkscape:window-maximized="1"
     inkscape:current-layer="layer1" />
  <defs
     id="defs1" />
  <g
     inkscape:label="Layer 1"
     inkscape:groupmode="layer"
     id="layer1"
     transform="translate(-33.3986, -71.6773)">
    <rect
       style="fill:#754668;fill-opacity:0.5;stroke:#754668;stroke-width:1.042;stroke-linecap:round;stroke-linejoin:round;stroke-dasharray:none;stroke-opacity:1"
       id="rect1"
       width="128.29013"
       height="33.583801"
       x="33.919643"
       y="182.69589"
       ry="3.8061643" />
    <rect
       style="fill:#ff8552;fill-opacity:0.501961;stroke:#ff8552;stroke-width:1.042;stroke-linecap:round;stroke-linejoin:round;stroke-dasharray:none;stroke-opacity:1"
       id="rect1-6"
       width="128.29013"
       height="33.583801"
       x="33.919643"
       y="109.03085"
       ry="3.8061643" />
    <rect
       style="fill:#297373;fill-opacity:0.501961;stroke:#297373;stroke-width:1.042;stroke-linecap:round;stroke-linejoin:round;stroke-dasharray:none;stroke-opacity:1"
       id="rect1-61"
       width="128.29013"
       height="33.583801"
       x="33.919643"
       y="145.86337"
       ry="3.8061643" />
    <rect
       style="fill:#e9d758;fill-opacity:0.501961;stroke:#e9d758;stroke-width:1.042;stroke-linecap:round;stroke-linejoin:round;stroke-dasharray:none;stroke-opacity:1"
       id="rect1-2"
       width="128.29013"
       height="33.583801"
       x="33.919643"
       y="72.198334"
       ry="3.8061643" />
    <g
       inkscape:label=""
       transform="translate(81.427303,196.41752)"
       id="g1">
      <g
         fill="#000000"
         fill-opacity="1"
         id="g10"
         transform="matrix(0.352778,0,0,0.352778,-1.14957,-0.706217)">
        <g
           id="use6"
           transform="translate(1.993,19.205)">
          <path
             d="m 13.90625,-15.171875 c 0,-1.109375 0.265625,-1.109375 1.984375,-1.109375 v -0.640625 c -0.71875,0.04687 -2.03125,0.04687 -2.8125,0.04687 -0.765625,0 -2.078125,0 -2.796875,-0.04687 v 0.640625 c 1.71875,0 1.984375,0 1.984375,1.109375 V -9.125 H 4.875 v -6.046875 c 0,-1.109375 0.28125,-1.109375 1.984375,-1.109375 v -0.640625 C 6.140625,-16.875 4.828125,-16.875 4.0625,-16.875 c -0.765625,0 -2.078125,0 -2.796875,-0.04687 v 0.640625 c 1.703125,0 1.984375,0 1.984375,1.109375 v 13.40625 c 0,1.125 -0.28125,1.125 -1.984375,1.125 V 0 c 0.71875,-0.046875 2.03125,-0.046875 2.796875,-0.046875 0.765625,0 2.078125,0 2.796875,0.046875 v -0.640625 c -1.703125,0 -1.984375,0 -1.984375,-1.125 V -8.46875 h 7.390625 v 6.703125 c 0,1.125 -0.265625,1.125 -1.984375,1.125 V 0 C 11,-0.046875 12.3125,-0.046875 13.078125,-0.046875 c 0.78125,0 2.09375,0 2.8125,0.046875 v -0.640625 c -1.71875,0 -1.984375,0 -1.984375,-1.125 z m 0,0"
             id="path13" />
        </g>
        <g
           id="use7"
           transform="translate(19.177896,19.205)">
          <path
             d="m 8.921875,-6.421875 c 0,-1.625 0,-2.5 -1.046875,-3.46875 -0.90625,-0.8125 -1.984375,-1.0625 -2.8125,-1.0625 -1.96875,0 -3.375,1.53125 -3.375,3.171875 0,0.921875 0.734375,0.96875 0.890625,0.96875 0.328125,0 0.890625,-0.203125 0.890625,-0.890625 0,-0.625 -0.46875,-0.890625 -0.890625,-0.890625 -0.09375,0 -0.21875,0.015625 -0.296875,0.046875 C 2.796875,-10.109375 4.140625,-10.5625 5,-10.5625 c 1.25,0 2.609375,1.09375 2.609375,3.171875 v 1.09375 C 6.140625,-6.25 4.390625,-6.046875 3,-5.296875 1.4375,-4.4375 0.984375,-3.203125 0.984375,-2.25 c 0,1.90625 2.234375,2.453125 3.546875,2.453125 1.359375,0 2.625,-0.765625 3.171875,-2.1875 0.046875,1.09375 0.75,2.078125 1.84375,2.078125 C 10.0625,0.09375 11.375,-0.25 11.375,-2.203125 V -3.59375 h -0.453125 v 1.40625 c 0,1.515625 -0.65625,1.71875 -0.984375,1.71875 -1.015625,0 -1.015625,-1.296875 -1.015625,-2.375 z m -1.3125,2.984375 c 0,2.15625 -1.53125,3.234375 -2.90625,3.234375 C 3.46875,-0.203125 2.5,-1.109375 2.5,-2.25 2.5,-3 2.828125,-4.3125 4.265625,-5.109375 5.453125,-5.78125 6.8125,-5.875 7.609375,-5.921875 Z m 0,0"
             id="path14" />
        </g>
        <g
           id="use8"
           transform="translate(30.545259,19.205)">
          <path
             d="m 3.71875,-5.84375 c 0,-2.390625 1.015625,-4.609375 2.875,-4.609375 0.171875,0 0.34375,0.01563 0.515625,0.09375 0,0 -0.546875,0.171875 -0.546875,0.8125 0,0.59375 0.46875,0.84375 0.84375,0.84375 0.296875,0 0.84375,-0.171875 0.84375,-0.859375 0,-0.796875 -0.796875,-1.296875 -1.640625,-1.296875 -1.875,0 -2.6875,1.84375 -2.9375,2.703125 h -0.03125 v -2.703125 l -2.875,0.28125 V -9.9375 c 1.46875,0 1.6875,0.15625 1.6875,1.34375 v 6.890625 c 0,0.9375 -0.09375,1.0625 -1.6875,1.0625 V 0 c 0.59375,-0.046875 1.734375,-0.046875 2.375,-0.046875 0.71875,0 1.984375,0 2.65625,0.046875 v -0.640625 c -1.78125,0 -2.078125,0 -2.078125,-1.125 z m 0,0"
             id="path15" />
        </g>
        <g
           id="use9"
           transform="translate(39.322372,19.205)">
          <path
             d="m 7.234375,-16.921875 v 0.640625 c 1.46875,0 1.6875,0.15625 1.6875,1.34375 v 5.796875 c -0.09375,-0.125 -1.109375,-1.71875 -3.125,-1.71875 -2.53125,0 -4.984375,2.265625 -4.984375,5.53125 0,3.25 2.3125,5.53125 4.734375,5.53125 2.109375,0 3.203125,-1.640625 3.328125,-1.8125 v 1.8125 L 11.875,0 v -0.640625 c -1.46875,0 -1.6875,-0.15625 -1.6875,-1.34375 v -15.21875 z M 8.875,-2.96875 c 0,0.734375 -0.453125,1.40625 -1.015625,1.90625 -0.84375,0.734375 -1.6875,0.859375 -2.15625,0.859375 -0.71875,0 -3.296875,-0.359375 -3.296875,-5.09375 0,-4.859375 2.875,-5.15625 3.515625,-5.15625 1.140625,0 2.0625,0.640625 2.625,1.53125 C 8.875,-8.40625 8.875,-8.328125 8.875,-7.875 Z m 0,0"
             id="path16" />
        </g>
        <g
           id="use10"
           transform="translate(51.986103,19.205)">
          <path
             d="m 14.421875,-8.46875 c 0.5,-1.46875 1.484375,-1.515625 1.859375,-1.546875 v -0.640625 c -0.5,0.03125 -0.984375,0.04687 -1.484375,0.04687 -0.46875,0 -1.53125,0 -1.953125,-0.04687 v 0.640625 c 0.765625,0.046875 1.1875,0.5 1.1875,1.125 0,0.171875 -0.04687,0.390625 -0.109375,0.5625 L 11.59375,-1.59375 9.0625,-8.890625 C 9.015625,-9.0625 8.953125,-9.265625 8.953125,-9.375 c 0,-0.640625 0.828125,-0.640625 1.234375,-0.640625 v -0.640625 c -0.578125,0.04687 -1.609375,0.04687 -2.203125,0.04687 -0.625,0 -1.265625,0 -1.84375,-0.04687 v 0.640625 c 1.375,0 1.375,0.046875 1.890625,1.609375 L 5.75,-1.765625 3.296875,-8.921875 c -0.125,-0.328125 -0.125,-0.375 -0.125,-0.453125 0,-0.640625 0.84375,-0.640625 1.234375,-0.640625 v -0.640625 c -0.59375,0.04687 -1.625,0.04687 -2.25,0.04687 -0.546875,0 -1.390625,0 -1.90625,-0.04687 v 0.640625 c 1.09375,0 1.359375,0.078125 1.640625,0.890625 L 4.9375,-0.203125 c 0.09375,0.328125 0.171875,0.40625 0.359375,0.40625 0.1875,0 0.28125,-0.046875 0.40625,-0.421875 L 8.25,-7.703125 10.828125,-0.21875 c 0.125,0.375 0.21875,0.421875 0.390625,0.421875 0.203125,0 0.28125,-0.078125 0.375,-0.40625 z m 0,0"
             id="path17" />
        </g>
      </g>
      <g
         fill="#000000"
         fill-opacity="1"
         id="g13"
         transform="matrix(0.352778,0,0,0.352778,-1.14957,-0.706217)">
        <g
           id="use11"
           transform="translate(67.889503,19.205)">
          <path
             d="m 8.921875,-6.421875 c 0,-1.625 0,-2.5 -1.046875,-3.46875 -0.90625,-0.8125 -1.984375,-1.0625 -2.8125,-1.0625 -1.96875,0 -3.375,1.53125 -3.375,3.171875 0,0.921875 0.734375,0.96875 0.890625,0.96875 0.328125,0 0.890625,-0.203125 0.890625,-0.890625 0,-0.625 -0.46875,-0.890625 -0.890625,-0.890625 -0.09375,0 -0.21875,0.015625 -0.296875,0.046875 C 2.796875,-10.109375 4.140625,-10.5625 5,-10.5625 c 1.25,0 2.609375,1.09375 2.609375,3.171875 v 1.09375 C 6.140625,-6.25 4.390625,-6.046875 3,-5.296875 1.4375,-4.4375 0.984375,-3.203125 0.984375,-2.25 c 0,1.90625 2.234375,2.453125 3.546875,2.453125 1.359375,0 2.625,-0.765625 3.171875,-2.1875 0.046875,1.09375 0.75,2.078125 1.84375,2.078125 C 10.0625,0.09375 11.375,-0.25 11.375,-2.203125 V -3.59375 h -0.453125 v 1.40625 c 0,1.515625 -0.65625,1.71875 -0.984375,1.71875 -1.015625,0 -1.015625,-1.296875 -1.015625,-2.375 z m -1.3125,2.984375 c 0,2.15625 -1.53125,3.234375 -2.90625,3.234375 C 3.46875,-0.203125 2.5,-1.109375 2.5,-2.25 2.5,-3 2.828125,-4.3125 4.265625,-5.109375 5.453125,-5.78125 6.8125,-5.875 7.609375,-5.921875 Z m 0,0"
             id="path18" />
        </g>
        <g
           id="use12"
           transform="translate(79.256866,19.205)">
          <path
             d="m 3.71875,-5.84375 c 0,-2.390625 1.015625,-4.609375 2.875,-4.609375 0.171875,0 0.34375,0.01563 0.515625,0.09375 0,0 -0.546875,0.171875 -0.546875,0.8125 0,0.59375 0.46875,0.84375 0.84375,0.84375 0.296875,0 0.84375,-0.171875 0.84375,-0.859375 0,-0.796875 -0.796875,-1.296875 -1.640625,-1.296875 -1.875,0 -2.6875,1.84375 -2.9375,2.703125 h -0.03125 v -2.703125 l -2.875,0.28125 V -9.9375 c 1.46875,0 1.6875,0.15625 1.6875,1.34375 v 6.890625 c 0,0.9375 -0.09375,1.0625 -1.6875,1.0625 V 0 c 0.59375,-0.046875 1.734375,-0.046875 2.375,-0.046875 0.71875,0 1.984375,0 2.65625,0.046875 v -0.640625 c -1.78125,0 -2.078125,0 -2.078125,-1.125 z m 0,0"
             id="path19" />
        </g>
        <g
           id="use13"
           transform="translate(88.033981,19.205)">
          <path
             d="m 9.4375,-5.828125 c 0.109375,-0.09375 0.109375,-0.140625 0.109375,-0.390625 0,-2.53125 -1.34375,-4.734375 -4.171875,-4.734375 -2.625,0 -4.703125,2.5 -4.703125,5.546875 0,3.21875 2.34375,5.609375 4.984375,5.609375 2.765625,0 3.859375,-2.625 3.859375,-3.15625 C 9.515625,-3.125 9.375,-3.125 9.3125,-3.125 9.140625,-3.125 9.125,-3.078125 9.015625,-2.78125 8.46875,-1.09375 7.109375,-0.25 5.828125,-0.25 4.765625,-0.25 3.6875,-0.84375 3.015625,-1.9375 2.25,-3.203125 2.25,-4.65625 2.25,-5.828125 Z M 2.28125,-6.1875 c 0.171875,-3.578125 2.078125,-4.375 3.078125,-4.375 1.671875,0 2.8125,1.59375 2.84375,4.375 z m 0,0"
             id="path20" />
        </g>
      </g>
    </g>
    <g
       inkscape:label=""
       transform="translate(66.741078,158.70581)"
       id="g45">
      <g
         fill="#000000"
         fill-opacity="1"
         id="g14"
         transform="matrix(0.352778,0,0,0.352778,-1.10547,-0.564048)">
        <g
           id="g7"
           transform="translate(1.993,18.927)">
          <path
             d="m 16.671875,-8.421875 c 0,-5.078125 -3.640625,-8.90625 -7.75,-8.90625 -4.21875,0 -7.78125,3.875 -7.78125,8.90625 0,5.03125 3.625,8.8125 7.75,8.8125 4.25,0 7.78125,-3.859375 7.78125,-8.8125 z m -7.75,8.375 c -2.828125,0 -5.90625,-2.828125 -5.90625,-8.703125 0,-5.84375 3.375,-8.125 5.875,-8.125 2.625,0 5.90625,2.359375 5.90625,8.125 0,5.96875 -3.15625,8.703125 -5.875,8.703125 z m 0,0"
             id="path6" />
        </g>
        <g
           id="g8"
           transform="translate(19.834755,18.927)">
          <path
             d="m 5.453125,4.1875 c -1.59375,0 -1.6875,-0.09375 -1.6875,-1.0625 v -4.640625 c 0.71875,1.046875 1.765625,1.71875 3.078125,1.71875 2.46875,0 4.984375,-2.1875 4.984375,-5.5625 0,-3.109375 -2.15625,-5.5 -4.71875,-5.5 -1.484375,0 -2.703125,0.828125 -3.390625,1.8125 v -1.8125 l -2.953125,0.28125 V -9.9375 c 1.46875,0 1.6875,0.15625 1.6875,1.34375 V 3.125 c 0,0.9375 -0.09375,1.0625 -1.6875,1.0625 V 4.828125 C 1.359375,4.78125 2.453125,4.78125 3.09375,4.78125 c 0.640625,0 1.765625,0 2.359375,0.046875 z m -1.6875,-11.96875 c 0,-0.34375 0,-0.875 0.96875,-1.78125 0.125,-0.109375 0.96875,-0.84375 2.203125,-0.84375 1.8125,0 3.296875,2.25 3.296875,5.078125 0,2.828125 -1.578125,5.125 -3.546875,5.125 -0.890625,0 -1.859375,-0.421875 -2.59375,-1.578125 C 3.765625,-2.328125 3.765625,-2.484375 3.765625,-2.875 Z m 0,0"
             id="path7" />
        </g>
      </g>
      <g
         fill="#000000"
         fill-opacity="1"
         id="g40"
         transform="matrix(0.352778,0,0,0.352778,-1.10547,-0.564048)">
        <g
           id="g9"
           transform="translate(33.142948,18.927)">
          <path
             d="m 9.4375,-5.828125 c 0.109375,-0.09375 0.109375,-0.140625 0.109375,-0.390625 0,-2.53125 -1.34375,-4.734375 -4.171875,-4.734375 -2.625,0 -4.703125,2.5 -4.703125,5.546875 0,3.21875 2.34375,5.609375 4.984375,5.609375 2.765625,0 3.859375,-2.625 3.859375,-3.15625 C 9.515625,-3.125 9.375,-3.125 9.3125,-3.125 9.140625,-3.125 9.125,-3.078125 9.015625,-2.78125 8.46875,-1.09375 7.109375,-0.25 5.828125,-0.25 4.765625,-0.25 3.6875,-0.84375 3.015625,-1.9375 2.25,-3.203125 2.25,-4.65625 2.25,-5.828125 Z M 2.28125,-6.1875 c 0.171875,-3.578125 2.078125,-4.375 3.078125,-4.375 1.671875,0 2.8125,1.59375 2.84375,4.375 z m 0,0"
             id="path8" />
        </g>
        <g
           id="g11"
           transform="translate(43.216427,18.927)">
          <path
             d="m 3.71875,-5.84375 c 0,-2.390625 1.015625,-4.609375 2.875,-4.609375 0.171875,0 0.34375,0.01563 0.515625,0.09375 0,0 -0.546875,0.171875 -0.546875,0.8125 0,0.59375 0.46875,0.84375 0.84375,0.84375 0.296875,0 0.84375,-0.171875 0.84375,-0.859375 0,-0.796875 -0.796875,-1.296875 -1.640625,-1.296875 -1.875,0 -2.6875,1.84375 -2.9375,2.703125 h -0.03125 v -2.703125 l -2.875,0.28125 V -9.9375 c 1.46875,0 1.6875,0.15625 1.6875,1.34375 v 6.890625 c 0,0.9375 -0.09375,1.0625 -1.6875,1.0625 V 0 c 0.59375,-0.046875 1.734375,-0.046875 2.375,-0.046875 0.71875,0 1.984375,0 2.65625,0.046875 v -0.640625 c -1.78125,0 -2.078125,0 -2.078125,-1.125 z m 0,0"
             id="path9" />
        </g>
        <g
           id="g15"
           transform="translate(51.993538,18.927)">
          <path
             d="m 8.921875,-6.421875 c 0,-1.625 0,-2.5 -1.046875,-3.46875 -0.90625,-0.8125 -1.984375,-1.0625 -2.8125,-1.0625 -1.96875,0 -3.375,1.53125 -3.375,3.171875 0,0.921875 0.734375,0.96875 0.890625,0.96875 0.328125,0 0.890625,-0.203125 0.890625,-0.890625 0,-0.625 -0.46875,-0.890625 -0.890625,-0.890625 -0.09375,0 -0.21875,0.015625 -0.296875,0.046875 C 2.796875,-10.109375 4.140625,-10.5625 5,-10.5625 c 1.25,0 2.609375,1.09375 2.609375,3.171875 v 1.09375 C 6.140625,-6.25 4.390625,-6.046875 3,-5.296875 1.4375,-4.4375 0.984375,-3.203125 0.984375,-2.25 c 0,1.90625 2.234375,2.453125 3.546875,2.453125 1.359375,0 2.625,-0.765625 3.171875,-2.1875 0.046875,1.09375 0.75,2.078125 1.84375,2.078125 C 10.0625,0.09375 11.375,-0.25 11.375,-2.203125 V -3.59375 h -0.453125 v 1.40625 c 0,1.515625 -0.65625,1.71875 -0.984375,1.71875 -1.015625,0 -1.015625,-1.296875 -1.015625,-2.375 z m -1.3125,2.984375 c 0,2.15625 -1.53125,3.234375 -2.90625,3.234375 C 3.46875,-0.203125 2.5,-1.109375 2.5,-2.25 2.5,-3 2.828125,-4.3125 4.265625,-5.109375 5.453125,-5.78125 6.8125,-5.875 7.609375,-5.921875 Z m 0,0"
             id="path11" />
        </g>
        <g
           id="g21"
           transform="translate(63.360901,18.927)">
          <path
             d="M 3.734375,-10.015625 H 7.21875 V -10.65625 H 3.734375 v -4.578125 h -0.4375 C 3.25,-12.6875 2.375,-10.453125 0.265625,-10.40625 v 0.390625 h 2.15625 v 6.96875 c 0,0.46875 0,3.25 2.875,3.25 1.46875,0 2.3125,-1.4375 2.3125,-3.28125 v -1.40625 H 7.15625 V -3.09375 C 7.15625,-1.390625 6.5,-0.25 5.453125,-0.25 c -0.71875,0 -1.71875,-0.5 -1.71875,-2.75 z m 0,0"
             id="path21" />
        </g>
        <g
           id="g22"
           transform="translate(72.138016,18.927)">
          <path
             d="m 3.84375,-15.265625 c 0,-0.546875 -0.453125,-1.015625 -1.015625,-1.015625 -0.546875,0 -1.015625,0.453125 -1.015625,1.015625 0,0.546875 0.4375,1.015625 1.015625,1.015625 0.546875,0 1.015625,-0.4375 1.015625,-1.015625 z m -2.90625,4.6875 V -9.9375 c 1.390625,0 1.59375,0.15625 1.59375,1.34375 v 6.890625 c 0,0.9375 -0.109375,1.0625 -1.6875,1.0625 V 0 C 1.4375,-0.046875 2.5,-0.046875 3.125,-0.046875 c 0.59375,0 1.609375,0 2.171875,0.046875 v -0.640625 c -1.453125,0 -1.5,-0.15625 -1.5,-1.046875 v -9.171875 z m 0,0"
             id="path22" />
        </g>
        <g
           id="g23"
           transform="translate(78.324875,18.927)">
          <path
             d="m 10.28125,-7.53125 c 0,-1.265625 -0.25,-3.328125 -3.171875,-3.328125 -1.953125,0 -2.96875,1.515625 -3.34375,2.515625 h -0.03125 v -2.515625 L 0.8125,-10.578125 V -9.9375 c 1.46875,0 1.6875,0.15625 1.6875,1.34375 v 6.890625 c 0,0.9375 -0.09375,1.0625 -1.6875,1.0625 V 0 C 1.40625,-0.046875 2.5,-0.046875 3.140625,-0.046875 c 0.65625,0 1.765625,0 2.359375,0.046875 v -0.640625 c -1.578125,0 -1.6875,-0.109375 -1.6875,-1.0625 V -6.46875 c 0,-2.28125 1.390625,-3.984375 3.125,-3.984375 1.828125,0 2.03125,1.625 2.03125,2.828125 v 5.921875 c 0,0.9375 -0.09375,1.0625 -1.6875,1.0625 V 0 c 0.59375,-0.046875 1.6875,-0.046875 2.328125,-0.046875 0.65625,0 1.765625,0 2.359375,0.046875 v -0.640625 c -1.578125,0 -1.6875,-0.109375 -1.6875,-1.0625 z m 0,0"
             id="path23" />
        </g>
        <g
           id="g39"
           transform="translate(90.988602,18.927)">
          <path
             d="m 2.75,-4.453125 c 0.46875,0.359375 1.296875,0.78125 2.28125,0.78125 1.953125,0 3.640625,-1.53125 3.640625,-3.59375 0,-0.640625 -0.203125,-1.625 -0.9375,-2.40625 0.6875,-0.734375 1.703125,-0.984375 2.28125,-0.984375 0.09375,0 0.25,0 0.375,0.07813 -0.109375,0.01563 -0.328125,0.125 -0.328125,0.515625 0,0.328125 0.21875,0.546875 0.546875,0.546875 0.375,0 0.5625,-0.25 0.5625,-0.578125 0,-0.46875 -0.375,-0.953125 -1.15625,-0.953125 -1,0 -1.859375,0.46875 -2.5625,1.109375 -0.734375,-0.671875 -1.625,-0.921875 -2.421875,-0.921875 -1.953125,0 -3.640625,1.546875 -3.640625,3.59375 0,1.421875 0.8125,2.3125 1.0625,2.5625 -0.75,0.859375 -0.75,1.875 -0.75,2 0,0.640625 0.25,1.59375 1.09375,2.109375 C 1.515625,-0.265625 0.5,0.71875 0.5,1.953125 0.5,3.734375 2.84375,5.0625 5.671875,5.0625 c 2.734375,0 5.1875,-1.265625 5.1875,-3.125 0,-3.375 -3.671875,-3.375 -5.578125,-3.375 -0.578125,0 -1.59375,0 -1.71875,-0.03125 -0.765625,-0.125 -1.28125,-0.8125 -1.28125,-1.671875 0,-0.234375 0,-0.78125 0.46875,-1.3125 z m 2.28125,0.359375 c -2.1875,0 -2.1875,-2.671875 -2.1875,-3.171875 0,-0.484375 0,-3.171875 2.1875,-3.171875 2.1875,0 2.1875,2.6875 2.1875,3.171875 0,0.5 0,3.171875 -2.1875,3.171875 z m 0.640625,8.734375 c -2.46875,0 -4.1875,-1.3125 -4.1875,-2.6875 0,-0.765625 0.421875,-1.484375 0.96875,-1.875 0.625,-0.421875 0.875,-0.421875 2.546875,-0.421875 2.03125,0 4.859375,0 4.859375,2.296875 0,1.375 -1.703125,2.6875 -4.1875,2.6875 z m 0,0"
             id="path39" />
        </g>
      </g>
      <g
         fill="#000000"
         fill-opacity="1"
         id="g27"
         transform="matrix(0.352778,0,0,0.352778,-1.10547,-0.564048)">
        <g
           id="g41"
           transform="translate(109.84167,18.927)">
          <path
             d="m 10.859375,-16.828125 c 0,-0.4375 -0.03125,-0.46875 -0.171875,-0.46875 -0.15625,0 -0.203125,0.09375 -0.296875,0.328125 l -0.75,1.625 c -0.9375,-1.359375 -2.375,-1.984375 -3.9375,-1.984375 -2.53125,0 -4.5625,2.015625 -4.5625,4.546875 0,0.765625 0.171875,1.859375 1.015625,2.890625 0.921875,1.140625 1.78125,1.34375 3.765625,1.859375 0.75,0.203125 1.984375,0.515625 2.234375,0.625 1.40625,0.59375 2.15625,2.078125 2.15625,3.46875 0,1.78125 -1.265625,3.6875 -3.421875,3.6875 -2.65625,0 -5.125,-1.484375 -5.296875,-4.953125 C 1.5625,-5.59375 1.53125,-5.625 1.359375,-5.625 c -0.1875,0 -0.21875,0.03125 -0.21875,0.515625 v 5.015625 c 0,0.4375 0.03125,0.46875 0.171875,0.46875 0.171875,0 0.21875,-0.125 0.578125,-0.890625 0.015625,-0.078125 0.015625,-0.125 0.484375,-1.078125 1.25,1.640625 3.328125,1.984375 4.515625,1.984375 2.703125,0 4.609375,-2.25 4.609375,-4.875 0,-1.296875 -0.46875,-2.28125 -0.75,-2.734375 C 9.71875,-8.796875 8.59375,-9.09375 7.40625,-9.390625 7.234375,-9.46875 7.1875,-9.46875 5.796875,-9.8125 4.453125,-10.15625 3.890625,-10.328125 3.265625,-11 c -0.6875,-0.765625 -0.9375,-1.5625 -0.9375,-2.359375 0,-1.609375 1.296875,-3.375 3.390625,-3.375 2.625,0 4.265625,1.859375 4.640625,4.96875 0.07813,0.4375 0.09375,0.46875 0.265625,0.46875 0.234375,0 0.234375,-0.07813 0.234375,-0.5 z m 0,0"
             id="path40" />
        </g>
        <g
           id="g42"
           transform="translate(122.5054,18.927)">
          <path
             d="M 9.671875,-8.46875 C 10.28125,-9.984375 11.40625,-10.015625 11.75,-10.015625 v -0.640625 c -0.46875,0.03125 -1.09375,0.04687 -1.5625,0.04687 -0.515625,0 -1.34375,0 -1.84375,-0.04687 v 0.640625 C 9.296875,-9.9375 9.3125,-9.25 9.3125,-9.046875 c 0,0.25 -0.046875,0.375 -0.171875,0.671875 L 6.4375,-1.6875 3.5,-8.921875 c -0.125,-0.296875 -0.125,-0.46875 -0.125,-0.5 0,-0.546875 0.5625,-0.59375 1.15625,-0.59375 V -10.65625 C 3.9375,-10.60938 2.875,-10.60938 2.25,-10.60938 c -0.65625,0 -1.453125,0 -2,-0.04687 v 0.640625 c 1.34375,0 1.484375,0.125 1.8125,0.921875 L 5.75,0 C 4.640625,2.921875 3.984375,4.640625 2.421875,4.640625 2.15625,4.640625 1.53125,4.5625 1.09375,4.109375 1.65625,4.0625 1.90625,3.71875 1.90625,3.296875 1.90625,2.875 1.609375,2.5 1.109375,2.5 c -0.546875,0 -0.8125,0.375 -0.8125,0.828125 0,0.984375 1.015625,1.703125 2.125,1.703125 1.4375,0 2.34375,-1.390625 2.828125,-2.625 z m 0,0"
             id="path41" />
        </g>
        <g
           id="g43"
           transform="translate(134.51971,18.927)">
          <path
             d="m 7.65625,-10.453125 c 0,-0.453125 -0.03125,-0.46875 -0.171875,-0.46875 -0.09375,0 -0.125,0.01563 -0.421875,0.390625 -0.078125,0.09375 -0.296875,0.34375 -0.375,0.4375 -0.796875,-0.828125 -1.90625,-0.859375 -2.328125,-0.859375 -2.75,0 -3.734375,1.4375 -3.734375,2.875 0,2.234375 2.515625,2.75 3.234375,2.90625 1.5625,0.3125 2.109375,0.40625 2.640625,0.859375 0.3125,0.296875 0.859375,0.84375 0.859375,1.734375 0,1.046875 -0.59375,2.375 -2.875,2.375 -2.15625,0 -2.921875,-1.625 -3.375,-3.8125 -0.0625,-0.34375 -0.0625,-0.375 -0.265625,-0.375 -0.203125,0 -0.21875,0.03125 -0.21875,0.53125 v 3.5625 c 0,0.453125 0.015625,0.46875 0.171875,0.46875 0.125,0 0.140625,-0.015625 0.265625,-0.21875 0.15625,-0.21875 0.53125,-0.828125 0.671875,-1.0625 0.5,0.65625 1.359375,1.3125 2.75,1.3125 C 6.9375,0.203125 8.25,-1.140625 8.25,-3.078125 8.25,-4.34375 7.578125,-5 7.265625,-5.296875 6.515625,-6.078125 5.65625,-6.25 4.609375,-6.4375 3.25,-6.734375 1.515625,-7.09375 1.515625,-8.59375 c 0,-0.65625 0.34375,-2.015625 2.84375,-2.015625 2.65625,0 2.796875,2.484375 2.859375,3.28125 0.015625,0.109375 0.140625,0.140625 0.21875,0.140625 0.21875,0 0.21875,-0.078125 0.21875,-0.5 z m 0,0"
             id="path42" />
        </g>
        <g
           id="use25"
           transform="translate(143.42819,18.927)">
          <path
             d="M 3.734375,-10.015625 H 7.21875 V -10.65625 H 3.734375 v -4.578125 h -0.4375 C 3.25,-12.6875 2.375,-10.453125 0.265625,-10.40625 v 0.390625 h 2.15625 v 6.96875 c 0,0.46875 0,3.25 2.875,3.25 1.46875,0 2.3125,-1.4375 2.3125,-3.28125 v -1.40625 H 7.15625 V -3.09375 C 7.15625,-1.390625 6.5,-0.25 5.453125,-0.25 c -0.71875,0 -1.71875,-0.5 -1.71875,-2.75 z m 0,0"
             id="path43" />
        </g>
        <g
           id="use26"
           transform="translate(152.20531,18.927)">
          <path
             d="m 9.4375,-5.828125 c 0.109375,-0.09375 0.109375,-0.140625 0.109375,-0.390625 0,-2.53125 -1.34375,-4.734375 -4.171875,-4.734375 -2.625,0 -4.703125,2.5 -4.703125,5.546875 0,3.21875 2.34375,5.609375 4.984375,5.609375 2.765625,0 3.859375,-2.625 3.859375,-3.15625 C 9.515625,-3.125 9.375,-3.125 9.3125,-3.125 9.140625,-3.125 9.125,-3.078125 9.015625,-2.78125 8.46875,-1.09375 7.109375,-0.25 5.828125,-0.25 4.765625,-0.25 3.6875,-0.84375 3.015625,-1.9375 2.25,-3.203125 2.25,-4.65625 2.25,-5.828125 Z M 2.28125,-6.1875 c 0.171875,-3.578125 2.078125,-4.375 3.078125,-4.375 1.671875,0 2.8125,1.59375 2.84375,4.375 z m 0,0"
             id="path44" />
        </g>
        <g
           id="use27"
           transform="translate(162.27878,18.927)">
          <path
             d="m 16.75,-7.53125 c 0,-1.234375 -0.21875,-3.328125 -3.171875,-3.328125 -1.6875,0 -2.84375,1.140625 -3.296875,2.484375 H 10.26562 C 9.96875,-10.40625 8.5,-10.859375 7.109375,-10.859375 c -1.953125,0 -2.96875,1.515625 -3.34375,2.515625 h -0.03125 v -2.515625 L 0.8125,-10.578125 V -9.9375 c 1.46875,0 1.6875,0.15625 1.6875,1.34375 v 6.890625 c 0,0.9375 -0.09375,1.0625 -1.6875,1.0625 V 0 C 1.40625,-0.046875 2.5,-0.046875 3.140625,-0.046875 c 0.65625,0 1.765625,0 2.359375,0.046875 v -0.640625 c -1.578125,0 -1.6875,-0.109375 -1.6875,-1.0625 V -6.46875 c 0,-2.28125 1.390625,-3.984375 3.125,-3.984375 1.828125,0 2.03125,1.625 2.03125,2.828125 v 5.921875 c 0,0.9375 -0.09375,1.0625 -1.6875,1.0625 V 0 c 0.59375,-0.046875 1.6875,-0.046875 2.328125,-0.046875 0.65625,0 1.765625,0 2.359375,0.046875 v -0.640625 c -1.578125,0 -1.6875,-0.109375 -1.6875,-1.0625 V -6.46875 c 0,-2.28125 1.390625,-3.984375 3.125,-3.984375 1.828125,0 2.03125,1.625 2.03125,2.828125 v 5.921875 c 0,0.9375 -0.09375,1.0625 -1.6875,1.0625 V 0 c 0.59375,-0.046875 1.6875,-0.046875 2.328125,-0.046875 0.65625,0 1.765625,0 2.359375,0.046875 v -0.640625 c -1.59375,0 -1.6875,-0.109375 -1.6875,-1.0625 z m 0,0"
             id="path45" />
        </g>
      </g>
    </g>
    <g
       inkscape:label=""
       transform="translate(76.367189,121.88156)"
       id="g59">
      <g
         fill="#000000"
         fill-opacity="1"
         id="g58"
         transform="matrix(0.352778,0,0,0.352778,-0.901524,-0.596327)">
        <g
           id="g46"
           transform="translate(1.993,19.205999)">
          <path
             d="m 9,-17.125 c -0.125,-0.328125 -0.171875,-0.390625 -0.421875,-0.390625 -0.25,0 -0.296875,0.0625 -0.421875,0.390625 l -5.25,14.875 C 2.421875,-0.921875 1.4375,-0.640625 0.5625,-0.640625 V 0 C 1.015625,-0.046875 2,-0.046875 2.484375,-0.046875 c 0.609375,0 1.609375,0 2.203125,0.046875 V -0.640625 C 3.515625,-0.6875 3.34375,-1.484375 3.34375,-1.78125 3.34375,-2 3.390625,-2.125 3.4375,-2.28125 l 1.328125,-3.6875 H 11.25 l 1.484375,4.203125 c 0.125,0.296875 0.125,0.359375 0.125,0.453125 0,0.671875 -1.0625,0.671875 -1.53125,0.671875 V 0 c 0.71875,-0.046875 2,-0.046875 2.765625,-0.046875 0.65625,0 1.890625,0 2.484375,0.046875 v -0.640625 c -1.3125,0 -1.765625,0 -2.078125,-0.921875 z m -1,1.984375 3.03125,8.53125 H 4.984375 Z m 0,0"
             id="path46" />
        </g>
        <g
           id="g47"
           transform="translate(19.177896,19.205999)">
          <path
             d="m 5.453125,4.1875 c -1.59375,0 -1.6875,-0.09375 -1.6875,-1.0625 v -4.640625 c 0.71875,1.046875 1.765625,1.71875 3.078125,1.71875 2.46875,0 4.984375,-2.1875 4.984375,-5.5625 0,-3.109375 -2.15625,-5.5 -4.71875,-5.5 -1.484375,0 -2.703125,0.828125 -3.390625,1.8125 v -1.8125 l -2.953125,0.28125 V -9.9375 c 1.46875,0 1.6875,0.15625 1.6875,1.34375 V 3.125 c 0,0.9375 -0.09375,1.0625 -1.6875,1.0625 V 4.828125 C 1.359375,4.78125 2.453125,4.78125 3.09375,4.78125 c 0.640625,0 1.765625,0 2.359375,0.046875 z m -1.6875,-11.96875 c 0,-0.34375 0,-0.875 0.96875,-1.78125 0.125,-0.109375 0.96875,-0.84375 2.203125,-0.84375 1.8125,0 3.296875,2.25 3.296875,5.078125 0,2.828125 -1.578125,5.125 -3.546875,5.125 -0.890625,0 -1.859375,-0.421875 -2.59375,-1.578125 C 3.765625,-2.328125 3.765625,-2.484375 3.765625,-2.875 Z m 0,0"
             id="path47" />
        </g>
        <g
           id="g48"
           transform="translate(31.841625,19.205999)">
          <path
             d="m 5.453125,4.1875 c -1.59375,0 -1.6875,-0.09375 -1.6875,-1.0625 v -4.640625 c 0.71875,1.046875 1.765625,1.71875 3.078125,1.71875 2.46875,0 4.984375,-2.1875 4.984375,-5.5625 0,-3.109375 -2.15625,-5.5 -4.71875,-5.5 -1.484375,0 -2.703125,0.828125 -3.390625,1.8125 v -1.8125 l -2.953125,0.28125 V -9.9375 c 1.46875,0 1.6875,0.15625 1.6875,1.34375 V 3.125 c 0,0.9375 -0.09375,1.0625 -1.6875,1.0625 V 4.828125 C 1.359375,4.78125 2.453125,4.78125 3.09375,4.78125 c 0.640625,0 1.765625,0 2.359375,0.046875 z m -1.6875,-11.96875 c 0,-0.34375 0,-0.875 0.96875,-1.78125 0.125,-0.109375 0.96875,-0.84375 2.203125,-0.84375 1.8125,0 3.296875,2.25 3.296875,5.078125 0,2.828125 -1.578125,5.125 -3.546875,5.125 -0.890625,0 -1.859375,-0.421875 -2.59375,-1.578125 C 3.765625,-2.328125 3.765625,-2.484375 3.765625,-2.875 Z m 0,0"
             id="path48" />
        </g>
        <g
           id="g49"
           transform="translate(44.505356,19.205999)">
          <path
             d="m 3.796875,-17.203125 -2.953125,0.28125 v 0.640625 c 1.453125,0 1.6875,0.15625 1.6875,1.34375 v 13.234375 c 0,0.9375 -0.109375,1.0625 -1.6875,1.0625 V 0 c 0.59375,-0.046875 1.6875,-0.046875 2.296875,-0.046875 0.65625,0 1.734375,0 2.34375,0.046875 v -0.640625 c -1.59375,0 -1.6875,-0.109375 -1.6875,-1.0625 z m 0,0"
             id="path49" />
        </g>
        <g
           id="g50"
           transform="translate(50.692215,19.205999)">
          <path
             d="m 3.84375,-15.265625 c 0,-0.546875 -0.453125,-1.015625 -1.015625,-1.015625 -0.546875,0 -1.015625,0.453125 -1.015625,1.015625 0,0.546875 0.4375,1.015625 1.015625,1.015625 0.546875,0 1.015625,-0.4375 1.015625,-1.015625 z m -2.90625,4.6875 V -9.9375 c 1.390625,0 1.59375,0.15625 1.59375,1.34375 v 6.890625 c 0,0.9375 -0.109375,1.0625 -1.6875,1.0625 V 0 C 1.4375,-0.046875 2.5,-0.046875 3.125,-0.046875 c 0.59375,0 1.609375,0 2.171875,0.046875 v -0.640625 c -1.453125,0 -1.5,-0.15625 -1.5,-1.046875 v -9.171875 z m 0,0"
             id="path50" />
        </g>
        <g
           id="g51"
           transform="translate(56.879074,19.205999)">
          <path
             d="m 8.65625,-8.671875 c -0.484375,0 -1.171875,0 -1.171875,0.859375 0,0.703125 0.5625,0.90625 0.890625,0.90625 0.171875,0 0.890625,-0.078125 0.890625,-0.953125 0,-1.75 -1.6875,-3.09375 -3.59375,-3.09375 -2.625,0 -4.859375,2.421875 -4.859375,5.59375 0,3.296875 2.328125,5.5625 4.859375,5.5625 3.078125,0 3.84375,-2.859375 3.84375,-3.125 0,-0.09375 -0.03125,-0.171875 -0.203125,-0.171875 -0.171875,0 -0.1875,0.015625 -0.296875,0.34375 -0.640625,2 -2.046875,2.5 -3.125,2.5 -1.578125,0 -3.484375,-1.453125 -3.484375,-5.125 0,-3.765625 1.828125,-5.125 3.296875,-5.125 0.96875,0 2.40625,0.46875 2.953125,1.828125 z m 0,0"
             id="path51" />
        </g>
        <g
           id="g52"
           transform="translate(66.952553,19.205999)">
          <path
             d="m 8.921875,-6.421875 c 0,-1.625 0,-2.5 -1.046875,-3.46875 -0.90625,-0.8125 -1.984375,-1.0625 -2.8125,-1.0625 -1.96875,0 -3.375,1.53125 -3.375,3.171875 0,0.921875 0.734375,0.96875 0.890625,0.96875 0.328125,0 0.890625,-0.203125 0.890625,-0.890625 0,-0.625 -0.46875,-0.890625 -0.890625,-0.890625 -0.09375,0 -0.21875,0.015625 -0.296875,0.046875 C 2.796875,-10.109375 4.140625,-10.5625 5,-10.5625 c 1.25,0 2.609375,1.09375 2.609375,3.171875 v 1.09375 C 6.140625,-6.25 4.390625,-6.046875 3,-5.296875 1.4375,-4.4375 0.984375,-3.203125 0.984375,-2.25 c 0,1.90625 2.234375,2.453125 3.546875,2.453125 1.359375,0 2.625,-0.765625 3.171875,-2.1875 0.046875,1.09375 0.75,2.078125 1.84375,2.078125 C 10.0625,0.09375 11.375,-0.25 11.375,-2.203125 V -3.59375 h -0.453125 v 1.40625 c 0,1.515625 -0.65625,1.71875 -0.984375,1.71875 -1.015625,0 -1.015625,-1.296875 -1.015625,-2.375 z m -1.3125,2.984375 c 0,2.15625 -1.53125,3.234375 -2.90625,3.234375 C 3.46875,-0.203125 2.5,-1.109375 2.5,-2.25 2.5,-3 2.828125,-4.3125 4.265625,-5.109375 5.453125,-5.78125 6.8125,-5.875 7.609375,-5.921875 Z m 0,0"
             id="path52" />
        </g>
        <g
           id="g53"
           transform="translate(78.319916,19.205999)">
          <path
             d="M 3.734375,-10.015625 H 7.21875 V -10.65625 H 3.734375 v -4.578125 h -0.4375 C 3.25,-12.6875 2.375,-10.453125 0.265625,-10.40625 v 0.390625 h 2.15625 v 6.96875 c 0,0.46875 0,3.25 2.875,3.25 1.46875,0 2.3125,-1.4375 2.3125,-3.28125 v -1.40625 H 7.15625 V -3.09375 C 7.15625,-1.390625 6.5,-0.25 5.453125,-0.25 c -0.71875,0 -1.71875,-0.5 -1.71875,-2.75 z m 0,0"
             id="path53" />
        </g>
        <g
           id="g54"
           transform="translate(87.097031,19.205999)">
          <path
             d="m 3.84375,-15.265625 c 0,-0.546875 -0.453125,-1.015625 -1.015625,-1.015625 -0.546875,0 -1.015625,0.453125 -1.015625,1.015625 0,0.546875 0.4375,1.015625 1.015625,1.015625 0.546875,0 1.015625,-0.4375 1.015625,-1.015625 z m -2.90625,4.6875 V -9.9375 c 1.390625,0 1.59375,0.15625 1.59375,1.34375 v 6.890625 c 0,0.9375 -0.109375,1.0625 -1.6875,1.0625 V 0 C 1.4375,-0.046875 2.5,-0.046875 3.125,-0.046875 c 0.59375,0 1.609375,0 2.171875,0.046875 v -0.640625 c -1.453125,0 -1.5,-0.15625 -1.5,-1.046875 v -9.171875 z m 0,0"
             id="path54" />
        </g>
        <g
           id="g55"
           transform="translate(93.28389,19.205999)">
          <path
             d="m 10.6875,-5.296875 c 0,-3.171875 -2.3125,-5.65625 -5.015625,-5.65625 -2.703125,0 -5,2.484375 -5,5.65625 0,3.109375 2.296875,5.5 5,5.5 2.703125,0 5.015625,-2.390625 5.015625,-5.5 z M 5.671875,-0.25 c -1.15625,0 -2.15625,-0.6875 -2.71875,-1.65625 C 2.328125,-3.015625 2.25,-4.40625 2.25,-5.5 c 0,-1.046875 0.046875,-2.328125 0.703125,-3.453125 0.484375,-0.8125 1.453125,-1.609375 2.71875,-1.609375 1.125,0 2.0625,0.625 2.65625,1.5 0.765625,1.15625 0.765625,2.796875 0.765625,3.5625 0,0.96875 -0.046875,2.453125 -0.71875,3.640625 C 7.6875,-0.71875 6.609375,-0.25 5.671875,-0.25 Z m 0,0"
             id="path55" />
        </g>
        <g
           id="g56"
           transform="translate(104.65125,19.205999)">
          <path
             d="m 10.28125,-7.53125 c 0,-1.265625 -0.25,-3.328125 -3.171875,-3.328125 -1.953125,0 -2.96875,1.515625 -3.34375,2.515625 h -0.03125 v -2.515625 L 0.8125,-10.578125 V -9.9375 c 1.46875,0 1.6875,0.15625 1.6875,1.34375 v 6.890625 c 0,0.9375 -0.09375,1.0625 -1.6875,1.0625 V 0 C 1.40625,-0.046875 2.5,-0.046875 3.140625,-0.046875 c 0.65625,0 1.765625,0 2.359375,0.046875 v -0.640625 c -1.578125,0 -1.6875,-0.109375 -1.6875,-1.0625 V -6.46875 c 0,-2.28125 1.390625,-3.984375 3.125,-3.984375 1.828125,0 2.03125,1.625 2.03125,2.828125 v 5.921875 c 0,0.9375 -0.09375,1.0625 -1.6875,1.0625 V 0 c 0.59375,-0.046875 1.6875,-0.046875 2.328125,-0.046875 0.65625,0 1.765625,0 2.359375,0.046875 v -0.640625 c -1.578125,0 -1.6875,-0.109375 -1.6875,-1.0625 z m 0,0"
             id="path56" />
        </g>
        <g
           id="g57"
           transform="translate(117.31498,19.205999)">
          <path
             d="m 7.65625,-10.453125 c 0,-0.453125 -0.03125,-0.46875 -0.171875,-0.46875 -0.09375,0 -0.125,0.01563 -0.421875,0.390625 -0.078125,0.09375 -0.296875,0.34375 -0.375,0.4375 -0.796875,-0.828125 -1.90625,-0.859375 -2.328125,-0.859375 -2.75,0 -3.734375,1.4375 -3.734375,2.875 0,2.234375 2.515625,2.75 3.234375,2.90625 1.5625,0.3125 2.109375,0.40625 2.640625,0.859375 0.3125,0.296875 0.859375,0.84375 0.859375,1.734375 0,1.046875 -0.59375,2.375 -2.875,2.375 -2.15625,0 -2.921875,-1.625 -3.375,-3.8125 -0.0625,-0.34375 -0.0625,-0.375 -0.265625,-0.375 -0.203125,0 -0.21875,0.03125 -0.21875,0.53125 v 3.5625 c 0,0.453125 0.015625,0.46875 0.171875,0.46875 0.125,0 0.140625,-0.015625 0.265625,-0.21875 0.15625,-0.21875 0.53125,-0.828125 0.671875,-1.0625 0.5,0.65625 1.359375,1.3125 2.75,1.3125 C 6.9375,0.203125 8.25,-1.140625 8.25,-3.078125 8.25,-4.34375 7.578125,-5 7.265625,-5.296875 6.515625,-6.078125 5.65625,-6.25 4.609375,-6.4375 3.25,-6.734375 1.515625,-7.09375 1.515625,-8.59375 c 0,-0.65625 0.34375,-2.015625 2.84375,-2.015625 2.65625,0 2.796875,2.484375 2.859375,3.28125 0.015625,0.109375 0.140625,0.140625 0.21875,0.140625 0.21875,0 0.21875,-0.078125 0.21875,-0.5 z m 0,0"
             id="path57" />
        </g>
      </g>
    </g>
    <g
       inkscape:label=""
       transform="translate(88.905119,85.936498)"
       id="g6">
      <g
         fill="#000000"
         fill-opacity="1"
         id="g5"
         transform="matrix(0.352778,0,0,0.352778,-1.14957,-0.707011)">
        <g
           id="use4"
           transform="translate(1.993,18.926001)">
          <path
             d="m 13.375,-5.671875 c 0,3.3125 -2.15625,5.421875 -4.5,5.421875 -1.265625,0 -2.40625,-0.671875 -3.09375,-1.703125 C 4.984375,-3.140625 4.875,-4.6875 4.875,-5.546875 v -9.625 c 0,-1.109375 0.28125,-1.109375 1.984375,-1.109375 v -0.640625 C 6.140625,-16.875 4.828125,-16.875 4.0625,-16.875 c -0.765625,0 -2.078125,0 -2.796875,-0.04687 v 0.640625 c 1.703125,0 1.984375,0 1.984375,1.109375 v 9.5 c 0,3.5625 2.703125,6.0625 5.578125,6.0625 3.21875,0 5.078125,-3.296875 5.078125,-5.71875 V -14.75 c 0,-1.375 1.265625,-1.53125 1.984375,-1.53125 v -0.640625 C 15.3125,-16.875 14.28125,-16.875 13.65625,-16.875 c -0.625,0 -1.6875,0 -2.25,-0.04687 v 0.640625 c 1.96875,0 1.96875,1.171875 1.96875,1.78125 z m 0,0"
             id="path1" />
        </g>
        <g
           id="use5"
           transform="translate(19.177896,18.926001)">
          <path
             d="m 7.65625,-10.453125 c 0,-0.453125 -0.03125,-0.46875 -0.171875,-0.46875 -0.09375,0 -0.125,0.01563 -0.421875,0.390625 -0.078125,0.09375 -0.296875,0.34375 -0.375,0.4375 -0.796875,-0.828125 -1.90625,-0.859375 -2.328125,-0.859375 -2.75,0 -3.734375,1.4375 -3.734375,2.875 0,2.234375 2.515625,2.75 3.234375,2.90625 1.5625,0.3125 2.109375,0.40625 2.640625,0.859375 0.3125,0.296875 0.859375,0.84375 0.859375,1.734375 0,1.046875 -0.59375,2.375 -2.875,2.375 -2.15625,0 -2.921875,-1.625 -3.375,-3.8125 -0.0625,-0.34375 -0.0625,-0.375 -0.265625,-0.375 -0.203125,0 -0.21875,0.03125 -0.21875,0.53125 v 3.5625 c 0,0.453125 0.015625,0.46875 0.171875,0.46875 0.125,0 0.140625,-0.015625 0.265625,-0.21875 0.15625,-0.21875 0.53125,-0.828125 0.671875,-1.0625 0.5,0.65625 1.359375,1.3125 2.75,1.3125 C 6.9375,0.203125 8.25,-1.140625 8.25,-3.078125 8.25,-4.34375 7.578125,-5 7.265625,-5.296875 6.515625,-6.078125 5.65625,-6.25 4.609375,-6.4375 3.25,-6.734375 1.515625,-7.09375 1.515625,-8.59375 c 0,-0.65625 0.34375,-2.015625 2.84375,-2.015625 2.65625,0 2.796875,2.484375 2.859375,3.28125 0.015625,0.109375 0.140625,0.140625 0.21875,0.140625 0.21875,0 0.21875,-0.078125 0.21875,-0.5 z m 0,0"
             id="path2" />
        </g>
        <g
           id="g2"
           transform="translate(28.08638,18.926001)">
          <path
             d="m 9.4375,-5.828125 c 0.109375,-0.09375 0.109375,-0.140625 0.109375,-0.390625 0,-2.53125 -1.34375,-4.734375 -4.171875,-4.734375 -2.625,0 -4.703125,2.5 -4.703125,5.546875 0,3.21875 2.34375,5.609375 4.984375,5.609375 2.765625,0 3.859375,-2.625 3.859375,-3.15625 C 9.515625,-3.125 9.375,-3.125 9.3125,-3.125 9.140625,-3.125 9.125,-3.078125 9.015625,-2.78125 8.46875,-1.09375 7.109375,-0.25 5.828125,-0.25 4.765625,-0.25 3.6875,-0.84375 3.015625,-1.9375 2.25,-3.203125 2.25,-4.65625 2.25,-5.828125 Z M 2.28125,-6.1875 c 0.171875,-3.578125 2.078125,-4.375 3.078125,-4.375 1.671875,0 2.8125,1.59375 2.84375,4.375 z m 0,0"
             id="path10" />
        </g>
        <g
           id="g3"
           transform="translate(38.159859,18.926001)">
          <path
             d="m 3.71875,-5.84375 c 0,-2.390625 1.015625,-4.609375 2.875,-4.609375 0.171875,0 0.34375,0.01563 0.515625,0.09375 0,0 -0.546875,0.171875 -0.546875,0.8125 0,0.59375 0.46875,0.84375 0.84375,0.84375 0.296875,0 0.84375,-0.171875 0.84375,-0.859375 0,-0.796875 -0.796875,-1.296875 -1.640625,-1.296875 -1.875,0 -2.6875,1.84375 -2.9375,2.703125 h -0.03125 v -2.703125 l -2.875,0.28125 V -9.9375 c 1.46875,0 1.6875,0.15625 1.6875,1.34375 v 6.890625 c 0,0.9375 -0.09375,1.0625 -1.6875,1.0625 V 0 c 0.59375,-0.046875 1.734375,-0.046875 2.375,-0.046875 0.71875,0 1.984375,0 2.65625,0.046875 v -0.640625 c -1.78125,0 -2.078125,0 -2.078125,-1.125 z m 0,0"
             id="path3" />
        </g>
        <g
           id="g4"
           transform="translate(46.93697,18.926001)">
          <path
             d="m 7.65625,-10.453125 c 0,-0.453125 -0.03125,-0.46875 -0.171875,-0.46875 -0.09375,0 -0.125,0.01563 -0.421875,0.390625 -0.078125,0.09375 -0.296875,0.34375 -0.375,0.4375 -0.796875,-0.828125 -1.90625,-0.859375 -2.328125,-0.859375 -2.75,0 -3.734375,1.4375 -3.734375,2.875 0,2.234375 2.515625,2.75 3.234375,2.90625 1.5625,0.3125 2.109375,0.40625 2.640625,0.859375 0.3125,0.296875 0.859375,0.84375 0.859375,1.734375 0,1.046875 -0.59375,2.375 -2.875,2.375 -2.15625,0 -2.921875,-1.625 -3.375,-3.8125 -0.0625,-0.34375 -0.0625,-0.375 -0.265625,-0.375 -0.203125,0 -0.21875,0.03125 -0.21875,0.53125 v 3.5625 c 0,0.453125 0.015625,0.46875 0.171875,0.46875 0.125,0 0.140625,-0.015625 0.265625,-0.21875 0.15625,-0.21875 0.53125,-0.828125 0.671875,-1.0625 0.5,0.65625 1.359375,1.3125 2.75,1.3125 C 6.9375,0.203125 8.25,-1.140625 8.25,-3.078125 8.25,-4.34375 7.578125,-5 7.265625,-5.296875 6.515625,-6.078125 5.65625,-6.25 4.609375,-6.4375 3.25,-6.734375 1.515625,-7.09375 1.515625,-8.59375 c 0,-0.65625 0.34375,-2.015625 2.84375,-2.015625 2.65625,0 2.796875,2.484375 2.859375,3.28125 0.015625,0.109375 0.140625,0.140625 0.21875,0.140625 0.21875,0 0.21875,-0.078125 0.21875,-0.5 z m 0,0"
             id="path12" />
        </g>
      </g>
    </g>
  </g>
</svg>
